<?xml version="1.0" encoding="UTF-8" standalone="no"?>
<!DOCTYPE svg PUBLIC "-//W3C//DTD SVG 1.1//EN" "http://www.w3.org/Graphics/SVG/1.1/DTD/svg11.dtd">
<svg width="100%" height="100%" viewBox="0 0 800 500" version="1.1" xmlns="http://www.w3.org/2000/svg" xmlns:xlink="http://www.w3.org/1999/xlink" xml:space="preserve" xmlns:serif="http://www.serif.com/" style="fill-rule:evenodd;clip-rule:evenodd;stroke-linejoin:round;stroke-miterlimit:1.41421;">
    <g transform="matrix(2.21753,0,0,2.21753,-363.619,-87.2972)">
        <g>
            <path d="M194.926,68.824C196.426,66.184 196.966,64.084 196.966,62.584C196.966,61.624 196.726,60.724 196.426,60.124C195.826,59.044 195.106,58.624 194.146,59.944C190.426,64.984 180.526,82.984 177.646,90.304C177.046,91.924 177.046,92.884 177.466,93.964C177.706,94.624 178.486,95.704 179.086,96.544C179.926,97.744 180.706,97.744 182.446,97.324C185.866,96.424 192.286,94.924 195.106,94.984C196.486,94.984 196.606,94.384 196.306,93.664C195.526,91.804 193.786,90.544 190.486,90.784C188.326,90.964 185.446,91.384 182.506,92.104C185.806,85.084 189.706,78.364 194.926,68.824Z" style="fill:rgb(255,222,79);fill-rule:nonzero;"/>
            <path d="M213.166,75.964C213.826,76.504 212.566,79.324 210.826,81.664C209.626,83.284 207.706,85.084 206.266,85.084C205.846,85.084 205.426,84.964 204.946,84.664C207.826,78.904 212.266,75.244 213.166,75.964ZM217.666,78.364C217.666,77.584 217.426,76.684 217.066,76.144C216.226,74.944 215.026,73.984 213.346,73.024C212.746,72.664 212.086,72.544 211.246,72.544C207.766,72.544 202.906,75.724 199.786,82.084C198.526,84.484 197.926,86.824 197.926,88.984C197.926,93.784 200.986,97.444 206.566,97.384C211.246,97.324 216.046,94.504 218.566,90.844C219.646,89.224 219.586,87.484 219.406,86.944C218.926,85.744 218.146,85.864 217.486,86.824C215.026,90.544 211.006,94.984 206.446,94.984C204.646,94.984 203.566,93.124 203.566,90.484C203.566,89.404 203.746,88.144 204.106,86.944C205.486,87.844 206.926,88.264 208.366,88.264C213.646,88.264 217.666,81.964 217.666,78.364Z" style="fill:rgb(255,222,79);fill-rule:nonzero;"/>
            <path d="M224.626,94.564C223.306,94.564 222.046,92.464 221.326,89.644C223.126,87.064 224.806,84.484 226.246,82.204C226.366,83.824 226.426,85.744 226.426,87.664C226.426,91.564 225.886,94.564 224.626,94.564ZM216.406,88.804C216.406,90.184 216.766,91.624 217.426,92.764C219.466,96.544 223.066,97.504 226.666,97.384C231.166,97.204 235.366,94.924 237.646,90.724C238.726,88.864 238.546,87.184 238.246,86.584C237.826,85.624 236.926,85.204 236.386,86.584C235.306,89.524 233.626,91.504 231.166,93.184C231.826,91.864 232.126,90.184 232.186,88.684C232.306,85.444 231.526,81.544 231.526,77.284C231.526,76.504 231.586,75.484 231.646,74.764C233.506,71.704 233.146,70.384 231.526,70.384C230.626,70.384 229.546,70.804 228.586,71.644C227.206,72.784 226.486,74.164 226.246,76.324C224.686,78.904 222.586,82.024 220.606,84.844C220.426,83.404 219.526,83.104 218.326,84.124C217.006,85.264 216.406,87.004 216.406,88.804Z" style="fill:rgb(255,222,79);fill-rule:nonzero;"/>
            <path d="M280.006,83.584C279.166,81.664 277.366,80.284 274.066,80.344C272.266,80.344 270.406,80.704 268.366,81.004C266.146,81.424 263.746,81.844 261.346,81.904C260.146,81.904 259.846,82.504 260.206,83.404C261.106,85.264 263.386,86.644 266.506,86.404C267.706,86.284 269.146,86.104 270.706,85.804C267.886,91.084 263.626,94.384 260.446,94.384C258.526,94.384 257.026,92.824 257.026,88.204C257.026,84.364 258.166,79.264 261.346,74.404C266.746,66.184 275.746,61.024 277.486,62.824C278.146,63.484 277.546,65.164 275.866,69.484C275.386,70.744 275.326,71.404 275.326,72.064C275.326,73.924 276.346,75.124 277.486,76.024C278.626,76.924 279.346,76.324 279.646,75.544C280.306,73.804 281.266,71.464 281.926,69.904C282.466,68.644 282.706,67.564 282.706,66.664C282.706,65.044 281.926,62.224 279.046,60.124C278.026,59.404 276.526,58.984 274.966,58.984C273.646,58.984 272.326,59.104 270.586,59.704C263.806,62.044 251.626,73.384 251.626,86.164C251.626,91.144 253.546,93.904 255.826,95.524C257.686,96.964 259.726,97.444 261.826,97.444C263.446,97.444 264.946,97.144 266.266,96.784C269.326,95.944 276.586,90.604 275.386,85.024C276.706,84.904 277.846,84.904 278.746,84.964C280.426,85.084 280.366,84.484 280.006,83.584Z" style="fill:rgb(255,222,79);fill-rule:nonzero;"/>
            <path d="M290.026,69.964C290.026,71.824 291.646,73.624 293.566,73.624C295.066,73.624 295.966,72.244 295.966,70.624C295.966,68.884 294.346,66.724 292.666,66.724C291.286,66.724 290.026,68.284 290.026,69.964ZM294.466,91.024C295.246,89.464 295.306,87.964 294.766,86.944C294.226,85.864 293.446,85.744 292.966,86.824C291.106,90.904 287.986,94.924 285.586,94.924C284.926,94.924 284.686,94.384 284.686,93.424C284.686,92.464 284.986,91.204 285.526,89.824C286.546,87.424 289.306,82.924 290.446,80.344C292.006,77.344 291.526,74.764 290.386,73.564C289.606,72.664 288.886,72.784 287.986,73.984C285.766,77.104 281.926,84.064 280.426,88.264C279.946,89.824 279.706,91.084 279.706,92.224C279.706,95.224 281.326,97.324 284.986,97.324C288.526,97.324 292.666,94.804 294.466,91.024Z" style="fill:rgb(255,222,79);fill-rule:nonzero;"/>
            <path d="M313.786,64.264C313.786,62.704 313.126,61.024 311.806,59.884C310.666,58.804 309.586,59.164 308.446,60.304C302.566,66.484 295.786,77.584 293.446,87.544C293.146,88.744 293.026,89.944 293.026,90.964C293.026,95.104 295.306,97.204 298.966,97.204C304.006,97.204 308.446,92.284 309.346,90.484C310.126,88.864 310.186,87.484 309.946,86.584C309.526,85.024 308.206,85.024 307.426,86.524C305.146,90.844 301.666,94.864 298.906,94.864C298.126,94.864 297.766,93.844 297.766,92.404C297.766,90.304 298.546,87.604 299.746,84.544C305.026,81.004 311.566,73.924 313.426,66.784C313.726,65.764 313.786,65.104 313.786,64.264ZM310.426,65.764C310.786,66.004 310.006,68.644 307.966,72.064C306.586,74.404 304.546,77.164 301.966,79.684C302.386,78.664 305.026,74.164 306.586,71.524C308.626,67.984 310.186,65.644 310.426,65.764Z" style="fill:rgb(255,222,79);fill-rule:nonzero;"/>
            <path d="M322.666,75.964C323.326,76.504 322.066,79.324 320.326,81.664C319.126,83.284 317.206,85.084 315.766,85.084C315.346,85.084 314.926,84.964 314.446,84.664C317.326,78.904 321.766,75.244 322.666,75.964ZM327.166,78.364C327.166,77.584 326.926,76.684 326.566,76.144C325.726,74.944 324.526,73.984 322.846,73.024C322.246,72.664 321.586,72.544 320.746,72.544C317.266,72.544 312.406,75.724 309.286,82.084C308.026,84.484 307.426,86.824 307.426,88.984C307.426,93.784 310.486,97.444 316.066,97.384C320.746,97.324 325.546,94.504 328.066,90.844C329.146,89.224 329.086,87.484 328.906,86.944C328.426,85.744 327.646,85.864 326.986,86.824C324.526,90.544 320.506,94.984 315.946,94.984C314.146,94.984 313.066,93.124 313.066,90.484C313.066,89.404 313.246,88.144 313.606,86.944C314.986,87.844 316.426,88.264 317.866,88.264C323.146,88.264 327.166,81.964 327.166,78.364Z" style="fill:rgb(255,222,79);fill-rule:nonzero;"/>
            <path d="M326.926,90.604C326.926,94.744 329.686,97.324 332.866,97.324C337.906,97.324 341.926,92.164 342.766,90.364C343.426,88.984 343.666,88.084 343.366,86.824C342.946,85.204 341.566,85.324 340.906,86.764C338.806,91.264 335.686,95.044 333.346,95.044C332.326,95.044 331.726,93.784 331.726,91.984C331.726,90.664 332.086,89.104 332.806,87.484C334.906,82.924 338.326,76.984 340.606,73.084C341.926,72.904 343.486,72.784 344.566,72.904C346.006,73.084 346.426,72.364 345.826,71.284C345.406,70.564 344.386,69.604 342.526,69.364C343.246,67.684 343.486,66.304 343.486,65.224C343.486,64.504 343.246,63.484 342.826,62.764C342.166,61.624 341.446,61.564 340.546,62.884C339.166,64.864 337.906,66.844 336.046,70.084C334.726,70.204 333.106,70.264 331.726,70.204C330.346,70.144 329.746,70.744 330.586,72.004C331.066,72.724 332.146,73.384 334.006,73.624C331.606,77.944 329.326,82.684 328.126,85.624C327.286,87.604 326.926,89.284 326.926,90.604Z" style="fill:rgb(255,222,79);fill-rule:nonzero;"/>
            <path d="M347.806,94.564C346.486,94.564 345.226,92.464 344.506,89.644C346.306,87.064 347.986,84.484 349.426,82.204C349.546,83.824 349.606,85.744 349.606,87.664C349.606,91.564 349.066,94.564 347.806,94.564ZM339.586,88.804C339.586,90.184 339.946,91.624 340.606,92.764C342.646,96.544 346.246,97.504 349.846,97.384C354.346,97.204 358.546,94.924 360.826,90.724C361.906,88.864 361.726,87.184 361.426,86.584C361.006,85.624 360.106,85.204 359.566,86.584C358.486,89.524 356.806,91.504 354.346,93.184C355.006,91.864 355.306,90.184 355.366,88.684C355.486,85.444 354.706,81.544 354.706,77.284C354.706,76.504 354.766,75.484 354.826,74.764C356.686,71.704 356.326,70.384 354.706,70.384C353.806,70.384 352.726,70.804 351.766,71.644C350.386,72.784 349.666,74.164 349.426,76.324C347.866,78.904 345.766,82.024 343.786,84.844C343.606,83.404 342.706,83.104 341.506,84.124C340.186,85.264 339.586,87.004 339.586,88.804Z" style="fill:rgb(255,222,79);fill-rule:nonzero;"/>
            <path d="M372.886,87.064C372.646,87.964 372.586,88.864 372.586,89.764C372.586,94.384 375.706,97.624 381.466,97.624C385.726,97.624 390.046,95.464 393.886,89.044C397.126,83.704 402.826,72.064 404.866,67.264C405.646,65.524 406.006,63.724 406.006,62.584C406.006,61.324 405.706,60.304 405.286,59.644C404.566,58.384 403.666,58.264 402.766,59.584C400.666,62.704 395.686,72.724 392.566,79.084C388.906,86.704 384.586,94.804 380.206,94.804C378.766,94.804 377.626,94.024 377.626,90.484C377.626,88.804 378.106,86.464 378.946,83.884C379.366,82.504 378.646,81.904 377.326,82.204C375.586,82.624 373.606,84.364 372.886,87.064Z" style="fill:rgb(255,222,79);fill-rule:nonzero;"/>
            <path d="M402.106,82.204C399.946,85.204 398.866,88.564 398.866,91.144C398.866,94.684 400.786,97.264 404.326,97.264C406.726,97.264 409.426,95.404 411.166,93.724C411.646,95.944 413.386,97.504 416.386,97.504C420.046,97.504 423.886,94.324 425.446,91.024C426.286,89.284 425.926,87.664 425.686,87.124C425.086,85.864 424.546,85.924 423.886,87.124C421.906,91.024 418.906,95.104 416.746,95.104C416.146,95.104 415.906,94.564 415.906,93.664C415.906,89.644 420.946,83.104 422.506,79.804C424.066,76.684 423.526,74.044 422.506,72.844C421.786,72.004 420.766,72.064 420.046,73.264L418.906,75.124C418.366,73.564 417.046,72.484 414.886,72.484C411.826,72.484 406.906,75.304 402.106,82.204ZM405.106,94.624C404.506,94.624 404.266,93.904 404.266,92.824C404.266,90.904 405.286,87.724 407.086,84.904C410.146,79.984 414.286,76.204 415.486,76.204C416.086,76.204 416.206,76.624 416.206,77.344C416.206,78.904 415.126,81.844 412.786,85.924C409.846,90.964 407.086,94.624 405.106,94.624Z" style="fill:rgb(255,222,79);fill-rule:nonzero;"/>
            <path d="M450.226,91.024C451.126,89.284 450.886,87.544 450.646,87.004C450.166,85.864 449.146,86.044 448.546,87.064C446.386,90.844 443.326,94.984 441.346,94.984C440.566,94.984 440.206,94.384 440.206,93.304C440.206,90.964 442.546,86.884 444.286,84.064C446.386,80.584 447.646,77.944 447.646,75.904C447.646,74.584 447.346,73.624 446.746,72.784C446.026,71.764 445.066,72.004 444.226,73.144C442.066,75.904 440.506,79.984 436.966,85.744C433.906,90.544 430.726,94.624 429.166,94.624C427.846,94.624 428.026,92.404 429.106,90.004C431.206,85.384 435.586,78.424 435.586,75.964C435.586,75.064 435.346,74.044 434.686,73.204C433.966,72.304 432.886,72.184 432.106,73.204C428.386,78.424 425.326,84.424 424.006,88.204C423.466,89.644 423.226,91.024 423.226,92.344C423.226,94.924 424.426,97.204 427.486,97.204C430.546,97.204 433.246,95.344 435.286,93.064C435.526,95.764 437.326,97.504 440.866,97.504C444.586,97.504 448.486,94.444 450.226,91.024Z" style="fill:rgb(255,222,79);fill-rule:nonzero;"/>
            <path d="M459.046,73.084C458.446,72.004 457.546,71.944 456.766,73.084C453.046,78.664 448.426,87.064 447.286,90.424C446.926,91.624 446.746,92.644 446.746,93.544C446.746,94.984 447.226,96.004 448.066,96.844C449.026,97.804 449.806,97.444 450.226,96.484C452.686,91.084 455.386,85.204 458.686,81.724C461.986,78.004 464.926,76.324 465.466,76.324C465.886,76.324 464.926,77.884 463.666,79.864C461.326,83.584 458.566,89.104 458.566,92.344C458.566,95.464 460.306,97.504 464.326,97.504C467.926,97.504 472.306,94.324 473.986,91.024C474.826,89.404 474.766,87.544 474.286,86.824C473.746,85.984 472.906,85.924 472.306,87.064C470.146,91.084 467.026,94.984 464.986,94.984C464.206,94.984 463.786,94.204 463.786,92.944C463.786,90.724 465.826,86.764 467.746,83.704C469.666,80.344 470.746,78.424 470.746,77.104C470.746,74.824 469.126,72.724 467.386,72.724C465.226,72.724 462.346,74.704 459.766,77.104C459.826,76.744 459.826,76.324 459.826,75.904C459.826,74.944 459.586,73.984 459.046,73.084Z" style="fill:rgb(255,222,79);fill-rule:nonzero;"/>
            <path d="M487.786,75.964C488.446,76.504 487.186,79.324 485.446,81.664C484.246,83.284 482.326,85.084 480.886,85.084C480.466,85.084 480.046,84.964 479.566,84.664C482.446,78.904 486.886,75.244 487.786,75.964ZM492.286,78.364C492.286,77.584 492.046,76.684 491.686,76.144C490.846,74.944 489.646,73.984 487.966,73.024C487.366,72.664 486.706,72.544 485.866,72.544C482.386,72.544 477.526,75.724 474.406,82.084C473.146,84.484 472.546,86.824 472.546,88.984C472.546,93.784 475.606,97.444 481.186,97.384C485.866,97.324 490.666,94.504 493.186,90.844C494.266,89.224 494.206,87.484 494.026,86.944C493.546,85.744 492.766,85.864 492.106,86.824C489.646,90.544 485.626,94.984 481.066,94.984C479.266,94.984 478.186,93.124 478.186,90.484C478.186,89.404 478.366,88.144 478.726,86.944C480.106,87.844 481.546,88.264 482.986,88.264C488.266,88.264 492.286,81.964 492.286,78.364Z" style="fill:rgb(255,222,79);fill-rule:nonzero;"/>
            <path d="M499.246,94.564C497.926,94.564 496.666,92.464 495.946,89.644C497.746,87.064 499.426,84.484 500.866,82.204C500.986,83.824 501.046,85.744 501.046,87.664C501.046,91.564 500.506,94.564 499.246,94.564ZM491.026,88.804C491.026,90.184 491.386,91.624 492.046,92.764C494.086,96.544 497.686,97.504 501.286,97.384C505.786,97.204 509.986,94.924 512.266,90.724C513.346,88.864 513.166,87.184 512.866,86.584C512.446,85.624 511.546,85.204 511.006,86.584C509.926,89.524 508.246,91.504 505.786,93.184C506.446,91.864 506.746,90.184 506.806,88.684C506.926,85.444 506.146,81.544 506.146,77.284C506.146,76.504 506.206,75.484 506.266,74.764C508.126,71.704 507.766,70.384 506.146,70.384C505.246,70.384 504.166,70.804 503.206,71.644C501.826,72.784 501.106,74.164 500.866,76.324C499.306,78.904 497.206,82.024 495.226,84.844C495.046,83.404 494.146,83.104 492.946,84.124C491.626,85.264 491.026,87.004 491.026,88.804Z" style="fill:rgb(255,222,79);fill-rule:nonzero;"/>
            <path d="M223.816,158.644C222.496,158.644 221.236,156.544 220.516,153.724C222.316,151.144 223.996,148.564 225.436,146.284C225.556,147.904 225.616,149.824 225.616,151.744C225.616,155.644 225.076,158.644 223.816,158.644ZM215.596,152.884C215.596,154.264 215.956,155.704 216.616,156.844C218.656,160.624 222.256,161.584 225.856,161.464C230.356,161.284 234.556,159.004 236.836,154.804C237.916,152.944 237.736,151.264 237.436,150.664C237.016,149.704 236.116,149.284 235.576,150.664C234.496,153.604 232.816,155.584 230.356,157.264C231.016,155.944 231.316,154.264 231.376,152.764C231.496,149.524 230.716,145.624 230.716,141.364C230.716,140.584 230.776,139.564 230.836,138.844C232.696,135.784 232.336,134.464 230.716,134.464C229.816,134.464 228.736,134.884 227.776,135.724C226.396,136.864 225.676,138.244 225.436,140.404C223.876,142.984 221.776,146.104 219.796,148.924C219.616,147.484 218.716,147.184 217.516,148.204C216.196,149.344 215.596,151.084 215.596,152.884Z" style="fill:rgb(255,222,79);fill-rule:nonzero;"/>
            <path d="M246.916,126.424C247.636,125.224 248.176,123.784 247.636,122.524C247.156,121.444 246.196,120.964 245.056,122.404C243.076,124.744 239.596,131.044 238.516,134.164C238.276,134.944 238.516,135.484 239.296,135.604C239.956,135.724 240.796,135.604 241.516,134.644C243.076,132.664 246.256,127.924 246.916,126.424Z" style="fill:rgb(255,222,79);fill-rule:nonzero;"/>
            <path d="M239.656,158.224C240.316,159.304 240.736,160.264 241.156,160.864C241.936,162.004 242.896,162.004 244.336,161.584C247.636,160.684 254.056,159.124 257.236,159.184C258.496,159.184 258.676,158.704 258.376,157.864C257.656,155.884 255.976,154.924 252.736,155.044C250.816,155.164 247.036,155.824 244.576,156.484C245.776,153.784 247.036,151.324 248.716,148.144C251.956,147.304 256.156,146.584 259.096,146.584C260.476,146.584 260.596,145.984 260.296,145.204C259.636,143.284 258.076,142.204 254.776,142.324C253.936,142.384 252.916,142.444 251.656,142.624C254.476,137.524 257.236,132.544 259.216,129.544C260.116,129.424 260.716,129.304 261.616,129.124C264.436,128.584 267.676,127.984 270.676,127.984C271.816,127.984 272.236,127.444 271.996,126.784C271.216,124.684 269.716,123.604 266.956,123.664C265.396,123.664 263.716,123.964 261.676,124.264C258.796,124.744 255.616,125.104 252.316,125.104C251.416,125.104 250.756,125.464 250.936,126.304C251.236,127.444 251.956,128.404 253.336,129.304C248.356,137.044 242.596,147.904 239.896,154.984C239.296,156.664 239.176,157.444 239.656,158.224Z" style="fill:rgb(255,222,79);fill-rule:nonzero;"/>
            <path d="M273.016,137.164C272.416,136.084 271.516,136.024 270.736,137.164C267.016,142.744 262.396,151.144 261.256,154.504C260.896,155.704 260.716,156.724 260.716,157.624C260.716,159.064 261.196,160.084 262.036,160.924C262.996,161.884 263.776,161.524 264.196,160.564C266.656,155.164 269.356,149.284 272.656,145.804C275.956,142.084 278.896,140.404 279.436,140.404C279.856,140.404 278.896,141.964 277.636,143.944C275.296,147.664 272.536,153.184 272.536,156.424C272.536,159.544 274.276,161.584 278.296,161.584C281.896,161.584 286.276,158.404 287.956,155.104C288.796,153.484 288.736,151.624 288.256,150.904C287.716,150.064 286.876,150.004 286.276,151.144C284.116,155.164 280.996,159.064 278.956,159.064C278.176,159.064 277.756,158.284 277.756,157.024C277.756,154.804 279.796,150.844 281.716,147.784C283.636,144.424 284.716,142.504 284.716,141.184C284.716,138.904 283.096,136.804 281.356,136.804C279.196,136.804 276.316,138.784 273.736,141.184C273.796,140.824 273.796,140.404 273.796,139.984C273.796,139.024 273.556,138.064 273.016,137.164Z" style="fill:rgb(255,222,79);fill-rule:nonzero;"/>
            <path d="M322.096,151.264C321.616,149.884 320.596,150.124 320.056,151.264C318.196,155.524 314.956,159.124 312.856,159.124C311.956,159.124 311.536,158.104 311.536,156.544C311.536,155.644 311.596,154.804 311.896,153.964C312.916,150.844 315.796,146.944 318.556,143.884C319.216,143.044 319.516,142.204 319.516,141.544C319.516,140.044 318.496,138.484 317.656,137.464C316.996,136.624 316.276,136.744 315.136,137.524C313.396,138.784 311.536,139.684 309.976,140.044C310.876,138.004 311.236,136.324 311.236,134.944C311.236,133.624 310.696,132.844 309.256,132.844C307.216,132.844 303.376,137.524 303.376,140.584C303.376,141.604 303.856,142.564 304.876,143.164C301.336,152.044 295.516,159.064 292.276,159.064C291.256,159.064 290.596,157.864 290.596,156.064C290.596,154.744 290.956,153.244 291.616,151.624C293.536,147.424 296.116,142.864 298.216,139.324L299.476,137.224C300.436,137.164 301.696,137.224 302.716,137.224C303.796,137.224 304.696,136.744 304.156,135.844C303.616,134.944 303.076,133.984 301.336,133.684C302.056,131.944 302.356,130.504 302.356,129.304C302.356,128.584 302.176,127.864 301.876,127.084C301.396,125.704 300.316,125.584 299.356,127.024C297.796,129.424 295.756,132.544 294.436,134.224C293.476,134.344 292.276,134.404 290.716,134.284C289.216,134.224 288.736,134.884 289.456,136.024C289.936,136.744 291.316,137.464 292.936,137.764C290.596,141.964 288.196,146.824 286.936,149.704C286.156,151.624 285.856,153.304 285.856,154.684C285.856,158.884 288.616,161.404 291.796,161.404C298.276,161.404 304.456,152.584 308.416,143.704C309.736,143.644 311.416,143.344 313.096,142.624C310.816,145.384 308.176,149.044 307.156,152.104C306.736,153.364 306.556,154.384 306.556,155.344C306.556,158.764 308.716,161.524 312.496,161.524C316.096,161.524 320.296,159.004 321.856,155.284C322.576,153.544 322.396,151.984 322.096,151.264Z" style="fill:rgb(255,222,79);fill-rule:nonzero;"/>
            <path d="M323.356,146.284C321.196,149.284 320.116,152.644 320.116,155.224C320.116,158.764 322.036,161.344 325.576,161.344C327.976,161.344 330.676,159.484 332.416,157.804C332.896,160.024 334.636,161.584 337.636,161.584C341.296,161.584 345.136,158.404 346.696,155.104C347.536,153.364 347.176,151.744 346.936,151.204C346.336,149.944 345.796,150.004 345.136,151.204C343.156,155.104 340.156,159.184 337.996,159.184C337.396,159.184 337.156,158.644 337.156,157.744C337.156,153.724 342.196,147.184 343.756,143.884C345.316,140.764 344.776,138.124 343.756,136.924C343.036,136.084 342.016,136.144 341.296,137.344L340.156,139.204C339.616,137.644 338.296,136.564 336.136,136.564C333.076,136.564 328.156,139.384 323.356,146.284ZM326.356,158.704C325.756,158.704 325.516,157.984 325.516,156.904C325.516,154.984 326.536,151.804 328.336,148.984C331.396,144.064 335.536,140.284 336.736,140.284C337.336,140.284 337.456,140.704 337.456,141.424C337.456,142.984 336.376,145.924 334.036,150.004C331.096,155.044 328.336,158.704 326.356,158.704Z" style="fill:rgb(255,222,79);fill-rule:nonzero;"/>
            <path d="M354.796,134.044C354.796,135.904 356.416,137.704 358.336,137.704C359.836,137.704 360.736,136.324 360.736,134.704C360.736,132.964 359.116,130.804 357.436,130.804C356.056,130.804 354.796,132.364 354.796,134.044ZM359.236,155.104C360.016,153.544 360.076,152.044 359.536,151.024C358.996,149.944 358.216,149.824 357.736,150.904C355.876,154.984 352.756,159.004 350.356,159.004C349.696,159.004 349.456,158.464 349.456,157.504C349.456,156.544 349.756,155.284 350.296,153.904C351.316,151.504 354.076,147.004 355.216,144.424C356.776,141.424 356.296,138.844 355.156,137.644C354.376,136.744 353.656,136.864 352.756,138.064C350.536,141.184 346.696,148.144 345.196,152.344C344.716,153.904 344.476,155.164 344.476,156.304C344.476,159.304 346.096,161.404 349.756,161.404C353.296,161.404 357.436,158.884 359.236,155.104Z" style="fill:rgb(255,222,79);fill-rule:nonzero;"/>
            <path d="M386.656,133.084C388.216,130.264 388.996,127.924 388.996,126.304C388.996,125.464 388.756,124.684 388.456,123.964C387.856,122.524 387.016,122.404 385.936,123.904C383.956,126.724 380.056,133.504 377.056,139.144C376.576,137.584 375.256,136.744 373.216,136.744C370.096,136.744 365.116,139.564 360.436,146.344C358.336,149.404 357.256,152.704 357.256,155.224C357.256,158.764 359.176,161.344 362.656,161.344C365.296,161.344 367.636,159.784 369.496,157.864C369.976,160.504 371.956,161.524 374.896,161.524C378.376,161.524 382.096,158.404 383.716,155.164C384.496,153.484 384.256,151.804 383.956,151.264C383.416,150.184 382.636,150.124 382.036,151.264C379.996,155.224 377.056,159.184 374.956,159.184C374.416,159.184 374.176,158.764 374.176,157.864C374.176,156.904 374.536,155.584 375.256,154.024C378.076,148.084 383.176,139.684 386.656,133.084ZM370.996,150.124C368.296,155.344 365.416,158.704 363.496,158.704C362.836,158.704 362.596,157.924 362.596,156.844C362.596,154.864 363.556,151.864 365.356,149.044C368.536,144.004 372.496,140.344 374.176,140.404C375.316,140.464 374.236,143.944 370.996,150.124Z" style="fill:rgb(255,222,79);fill-rule:nonzero;"/>
            <path d="M397.276,140.044C397.936,140.584 396.676,143.404 394.936,145.744C393.736,147.364 391.816,149.164 390.376,149.164C389.956,149.164 389.536,149.044 389.056,148.744C391.936,142.984 396.376,139.324 397.276,140.044ZM401.776,142.444C401.776,141.664 401.536,140.764 401.176,140.224C400.336,139.024 399.136,138.064 397.456,137.104C396.856,136.744 396.196,136.624 395.356,136.624C391.876,136.624 387.016,139.804 383.896,146.164C382.636,148.564 382.036,150.904 382.036,153.064C382.036,157.864 385.096,161.524 390.676,161.464C395.356,161.404 400.156,158.584 402.676,154.924C403.756,153.304 403.696,151.564 403.516,151.024C403.036,149.824 402.256,149.944 401.596,150.904C399.136,154.624 395.116,159.064 390.556,159.064C388.756,159.064 387.676,157.204 387.676,154.564C387.676,153.484 387.856,152.224 388.216,151.024C389.596,151.924 391.036,152.344 392.476,152.344C397.756,152.344 401.776,146.044 401.776,142.444Z" style="fill:rgb(255,222,79);fill-rule:nonzero;"/>
            <path d="M411.976,137.164C411.376,136.084 410.476,136.024 409.696,137.164C405.976,142.744 401.356,151.144 400.216,154.504C399.856,155.704 399.676,156.724 399.676,157.624C399.676,159.064 400.156,160.084 400.996,160.924C401.956,161.884 402.736,161.524 403.156,160.564C405.616,155.164 408.316,149.284 411.616,145.804C414.916,142.084 417.856,140.404 418.396,140.404C418.816,140.404 417.856,141.964 416.596,143.944C414.256,147.664 411.496,153.184 411.496,156.424C411.496,159.544 413.236,161.584 417.256,161.584C420.856,161.584 425.236,158.404 426.916,155.104C427.756,153.484 427.696,151.624 427.216,150.904C426.676,150.064 425.836,150.004 425.236,151.144C423.076,155.164 419.956,159.064 417.916,159.064C417.136,159.064 416.716,158.284 416.716,157.024C416.716,154.804 418.756,150.844 420.676,147.784C422.596,144.424 423.676,142.504 423.676,141.184C423.676,138.904 422.056,136.804 420.316,136.804C418.156,136.804 415.276,138.784 412.696,141.184C412.756,140.824 412.756,140.404 412.756,139.984C412.756,139.024 412.516,138.064 411.976,137.164Z" style="fill:rgb(255,222,79);fill-rule:nonzero;"/>
            <path d="M424.996,154.684C424.996,158.824 427.756,161.404 430.936,161.404C435.976,161.404 439.996,156.244 440.836,154.444C441.496,153.064 441.736,152.164 441.436,150.904C441.016,149.284 439.636,149.404 438.976,150.844C436.876,155.344 433.756,159.124 431.416,159.124C430.396,159.124 429.796,157.864 429.796,156.064C429.796,154.744 430.156,153.184 430.876,151.564C432.976,147.004 436.396,141.064 438.676,137.164C439.996,136.984 441.556,136.864 442.636,136.984C444.076,137.164 444.496,136.444 443.896,135.364C443.476,134.644 442.456,133.684 440.596,133.444C441.316,131.764 441.556,130.384 441.556,129.304C441.556,128.584 441.316,127.564 440.896,126.844C440.236,125.704 439.516,125.644 438.616,126.964C437.236,128.944 435.976,130.924 434.116,134.164C432.796,134.284 431.176,134.344 429.796,134.284C428.416,134.224 427.816,134.824 428.656,136.084C429.136,136.804 430.216,137.464 432.076,137.704C429.676,142.024 427.396,146.764 426.196,149.704C425.356,151.684 424.996,153.364 424.996,154.684Z" style="fill:rgb(255,222,79);fill-rule:nonzero;"/>
            <path d="M460.636,148.264C460.036,149.824 459.796,151.144 459.796,151.984C459.796,153.424 460.276,154.384 460.936,155.044C461.956,156.064 462.436,155.824 462.976,154.744C465.976,148.204 470.956,138.904 474.196,133.084C475.816,130.144 476.416,127.804 476.416,126.124C476.416,125.224 476.116,124.444 475.816,123.784C475.156,122.344 474.196,122.464 473.356,123.724C468.856,130.264 462.976,141.904 460.636,148.264ZM455.716,158.044C455.716,158.644 456.016,159.484 456.436,160.204C457.516,161.884 459.796,162.244 460.756,161.104C461.416,160.144 461.896,158.464 461.236,156.904C460.576,155.584 459.376,154.804 458.296,154.804C456.856,154.804 455.716,156.484 455.716,158.044Z" style="fill:rgb(255,222,79);fill-rule:nonzero;"/>
        </g>
    </g>
    <g transform="matrix(2.21753,0,0,2.21753,-363.163,-88.4505)">
        <g>
            <path d="M202.182,228.664L202.56,229.043C201.893,229.881 201.309,230.491 200.809,230.874C200.308,231.256 199.94,231.447 199.704,231.447C199.509,231.447 199.411,231.272 199.411,230.922C199.411,230.052 199.985,228.709 201.132,226.894C202.101,225.323 202.585,224.449 202.585,224.27C202.585,224.115 202.52,224.038 202.39,224.038C202.162,224.038 201.588,224.55 200.668,225.576C199.749,226.601 198.614,228.05 197.263,229.921C195.733,232.005 194.683,233.494 194.113,234.389C195.196,234.495 196.085,234.631 196.78,234.798C197.476,234.965 198.485,235.236 199.808,235.61C201.13,235.984 202.105,236.204 202.731,236.269C201.966,237.14 201.439,237.732 201.151,238.045C200.862,238.359 200.64,238.548 200.485,238.613C200.241,238.719 199.879,238.725 199.399,238.631C198.919,238.538 198.158,238.357 197.116,238.088C196.074,237.819 195.1,237.596 194.193,237.417C193.285,237.238 192.457,237.148 191.708,237.148C191.285,237.148 190.921,237.197 190.616,237.294C190.311,237.392 189.888,237.553 189.346,237.777C188.805,238 188.425,238.112 188.205,238.112C187.888,238.112 187.729,237.982 187.729,237.722C187.729,237.575 187.782,237.408 187.888,237.221C188.156,236.79 188.417,236.379 188.669,235.988C188.921,235.598 189.19,235.293 189.475,235.073C189.759,234.853 190.17,234.682 190.707,234.56C191.245,234.438 191.953,234.373 192.831,234.365C194.158,232.33 195.395,230.526 196.542,228.951C197.69,227.376 198.734,226.048 199.674,224.965C200.613,223.883 201.437,223.063 202.145,222.506C202.853,221.948 203.415,221.669 203.83,221.669C204.123,221.669 204.351,221.751 204.514,221.914C204.676,222.076 204.758,222.304 204.758,222.597C204.758,223.574 203.899,225.596 202.182,228.664Z" style="fill:rgb(119,119,119);fill-rule:nonzero;"/>
            <path d="M209.366,228.615C209.162,228.615 208.969,228.538 208.786,228.383C208.603,228.229 208.511,228.033 208.511,227.797C208.511,227.439 208.682,227.041 209.024,226.601C209.366,226.162 209.72,225.942 210.086,225.942C210.33,225.942 210.533,226.017 210.696,226.168C210.859,226.318 210.94,226.536 210.94,226.821C210.94,227.171 210.774,227.557 210.44,227.981C210.106,228.404 209.748,228.615 209.366,228.615ZM210.196,234.072L210.196,234.963C209.406,235.98 208.67,236.747 207.986,237.264C207.303,237.781 206.721,238.039 206.241,238.039C205.573,238.039 205.077,237.689 204.751,236.989C204.426,236.289 204.263,235.524 204.263,234.694C204.263,234.377 204.296,234.074 204.361,233.785C204.426,233.496 204.503,233.258 204.593,233.071C204.682,232.884 204.849,232.591 205.093,232.192C206.249,230.393 207.307,229.494 208.267,229.494C208.763,229.494 209.012,229.685 209.012,230.068C209.012,230.328 208.851,230.735 208.529,231.289C208.208,231.842 207.921,232.237 207.669,232.473C206.961,233.156 206.499,233.632 206.283,233.901C206.068,234.169 205.96,234.475 205.96,234.816C205.96,235.109 206.07,235.354 206.289,235.549C206.509,235.744 206.794,235.842 207.144,235.842C207.526,235.842 207.948,235.701 208.407,235.421C208.867,235.14 209.463,234.69 210.196,234.072Z" style="fill:rgb(119,119,119);fill-rule:nonzero;"/>
            <path d="M218.417,234.096L218.417,234.89C217.571,235.427 216.903,235.695 216.415,235.695C216.146,235.695 215.862,235.651 215.56,235.561C214.828,236.489 214.199,237.168 213.674,237.6C213.15,238.031 212.623,238.247 212.094,238.247C211.483,238.247 211.013,237.925 210.684,237.282C210.354,236.639 210.189,235.842 210.189,234.89C210.189,233.596 210.58,232.186 211.361,230.66C212.142,229.134 213.084,227.706 214.187,226.375C215.29,225.045 216.358,223.944 217.392,223.073C218.425,222.203 219.125,221.767 219.491,221.767C219.841,221.767 220.016,222.007 220.016,222.487C220.016,224.62 217.282,228.339 211.813,233.645C211.797,233.791 211.788,234.08 211.788,234.511C211.788,235.634 212.09,236.196 212.692,236.196C212.928,236.196 213.166,236.1 213.406,235.909C213.646,235.718 214.014,235.354 214.511,234.816C214.315,234.377 214.218,234.051 214.218,233.84C214.218,233.392 214.401,232.908 214.767,232.387C215.133,231.866 215.55,231.417 216.018,231.038C216.486,230.66 216.826,230.471 217.038,230.471C217.371,230.471 217.538,230.711 217.538,231.191C217.538,231.557 217.442,231.997 217.251,232.509C217.06,233.022 216.781,233.608 216.415,234.267C216.553,234.381 216.663,234.464 216.745,234.517C216.826,234.57 216.948,234.597 217.111,234.597C217.485,234.597 217.92,234.43 218.417,234.096ZM212.216,232.265C212.639,231.899 213.064,231.466 213.491,230.965C213.919,230.465 214.543,229.698 215.365,228.664C216.155,227.671 216.775,226.843 217.227,226.18C217.678,225.517 218.018,224.965 218.246,224.526C218.474,224.086 218.588,223.785 218.588,223.623C218.588,223.501 218.555,223.44 218.49,223.44C218.311,223.44 217.939,223.735 217.373,224.325C216.808,224.915 216.163,225.722 215.438,226.748C214.437,228.164 213.713,229.23 213.266,229.946C212.818,230.662 212.468,231.435 212.216,232.265Z" style="fill:rgb(119,119,119);fill-rule:nonzero;"/>
            <path d="M220.62,234.511L220.62,234.816C220.62,235.297 220.738,235.671 220.974,235.94C221.21,236.208 221.519,236.342 221.902,236.342C222.301,236.342 222.714,236.249 223.141,236.062C223.568,235.874 223.993,235.626 224.416,235.317C224.84,235.008 225.356,234.593 225.967,234.072L225.967,234.816C225.047,235.923 224.184,236.772 223.379,237.362C222.573,237.952 221.755,238.247 220.925,238.247C220.201,238.247 219.627,237.966 219.204,237.404C218.781,236.843 218.569,236.074 218.569,235.097C218.569,234.243 218.769,233.468 219.167,232.772C219.566,232.076 220.217,231.342 221.121,230.568C221.739,230.039 222.353,229.641 222.964,229.372C223.574,229.104 224.119,228.969 224.6,228.969C224.982,228.969 225.285,229.057 225.509,229.232C225.733,229.407 225.845,229.669 225.845,230.019C225.845,230.532 225.653,231.042 225.271,231.551C224.888,232.06 224.305,232.564 223.519,233.065C222.734,233.565 221.767,234.047 220.62,234.511ZM220.742,233.718C221.475,233.433 222.101,233.079 222.622,232.656C223.143,232.233 223.527,231.828 223.776,231.441C224.024,231.055 224.148,230.772 224.148,230.593C224.148,230.406 224.062,230.312 223.892,230.312C223.745,230.312 223.507,230.406 223.177,230.593C222.848,230.78 222.514,231.024 222.176,231.325C221.839,231.626 221.536,231.98 221.267,232.387C220.998,232.794 220.823,233.238 220.742,233.718Z" style="fill:rgb(119,119,119);fill-rule:nonzero;"/>
            <path d="M226.095,235.012L226.095,234.218C226.534,233.697 226.868,233.254 227.096,232.888C226.835,232.798 226.646,232.688 226.528,232.558C226.41,232.428 226.351,232.233 226.351,231.972C226.351,231.679 226.473,231.309 226.717,230.861C226.961,230.414 227.262,229.995 227.621,229.604C227.979,229.213 228.304,228.961 228.597,228.847C228.711,228.79 228.821,228.762 228.927,228.762C229.089,228.762 229.171,228.839 229.171,228.994C229.171,229.132 229.045,229.413 228.792,229.836C230.469,229.576 231.527,229.445 231.966,229.445C232.137,229.445 232.255,229.462 232.32,229.494C232.459,229.567 232.573,229.738 232.662,230.007C232.752,230.275 232.796,230.544 232.796,230.813C232.796,230.983 232.721,231.169 232.57,231.368C232.42,231.567 232.162,231.858 231.795,232.241C231.364,232.705 231.002,233.209 230.709,233.754C230.416,234.3 230.269,234.711 230.269,234.987C230.269,235.37 230.505,235.561 230.977,235.561C231.474,235.561 232.337,235.057 233.565,234.047L233.565,234.865C232.89,235.573 232.332,236.131 231.893,236.538C231.454,236.945 231.047,237.268 230.672,237.508C230.298,237.748 229.964,237.868 229.671,237.868C229.33,237.868 229.045,237.712 228.817,237.398C228.589,237.085 228.475,236.631 228.475,236.037C228.475,235.687 228.565,235.288 228.744,234.841C228.923,234.393 229.185,233.907 229.531,233.382C229.877,232.857 230.265,232.334 230.697,231.814C230.469,231.862 230.212,231.913 229.928,231.966C229.643,232.019 229.342,232.074 229.024,232.131C228.707,232.188 228.463,232.233 228.292,232.265C227.787,233.274 227.055,234.19 226.095,235.012Z" style="fill:rgb(119,119,119);fill-rule:nonzero;"/>
            <path d="M238.051,227.736L238.576,227.736C239.007,226.963 239.398,226.416 239.748,226.095C240.098,225.773 240.497,225.612 240.944,225.612C241.392,225.612 241.616,225.714 241.616,225.918C241.616,226.015 241.441,226.28 241.091,226.711C240.741,227.142 240.476,227.504 240.297,227.797C240.574,227.83 240.82,227.858 241.036,227.883C241.251,227.907 241.42,227.928 241.542,227.944C241.079,228.807 240.497,229.69 239.797,230.593C239.569,230.577 239.378,230.562 239.223,230.55C239.068,230.538 238.912,230.526 238.753,230.513C238.594,230.501 238.401,230.487 238.173,230.471C237.734,231.179 237.366,231.811 237.069,232.369C236.771,232.926 236.544,233.437 236.385,233.901C236.226,234.365 236.147,234.804 236.147,235.219C236.147,235.781 236.371,236.062 236.818,236.062C237.128,236.062 237.532,235.897 238.033,235.567C238.533,235.238 239.203,234.731 240.041,234.047L240.041,234.865C237.844,237.25 236.22,238.442 235.17,238.442C234.804,238.442 234.509,238.3 234.285,238.015C234.062,237.73 233.95,237.364 233.95,236.916C233.95,236.615 234.013,236.257 234.139,235.842C234.265,235.427 234.491,234.8 234.816,233.962C234.702,234.06 234.595,234.155 234.493,234.249C234.391,234.342 234.298,234.428 234.212,234.505C234.127,234.582 234.035,234.664 233.937,234.749C233.84,234.835 233.742,234.922 233.644,235.012L233.644,234.169C234.499,233.453 235.532,232.196 236.745,230.398C236.623,230.389 236.509,230.383 236.403,230.379C236.297,230.375 236.171,230.373 236.025,230.373C235.545,230.373 235.187,230.406 234.951,230.471C234.853,230.495 234.761,230.522 234.676,230.55C234.59,230.579 234.531,230.593 234.499,230.593C234.466,230.593 234.45,230.568 234.45,230.52C234.45,230.251 234.617,229.848 234.951,229.311C235.219,228.855 235.473,228.518 235.714,228.298C235.954,228.078 236.247,227.93 236.592,227.852C236.938,227.775 237.425,227.736 238.051,227.736Z" style="fill:rgb(119,119,119);fill-rule:nonzero;"/>
            <path d="M242.22,234.511L242.22,234.816C242.22,235.297 242.338,235.671 242.574,235.94C242.81,236.208 243.119,236.342 243.501,236.342C243.9,236.342 244.313,236.249 244.74,236.062C245.168,235.874 245.593,235.626 246.016,235.317C246.439,235.008 246.956,234.593 247.566,234.072L247.566,234.816C246.647,235.923 245.784,236.772 244.978,237.362C244.173,237.952 243.355,238.247 242.525,238.247C241.801,238.247 241.227,237.966 240.804,237.404C240.38,236.843 240.169,236.074 240.169,235.097C240.169,234.243 240.368,233.468 240.767,232.772C241.166,232.076 241.817,231.342 242.72,230.568C243.339,230.039 243.953,229.641 244.563,229.372C245.174,229.104 245.719,228.969 246.199,228.969C246.582,228.969 246.885,229.057 247.109,229.232C247.332,229.407 247.444,229.669 247.444,230.019C247.444,230.532 247.253,231.042 246.871,231.551C246.488,232.06 245.904,232.564 245.119,233.065C244.333,233.565 243.367,234.047 242.22,234.511ZM242.342,233.718C243.074,233.433 243.701,233.079 244.222,232.656C244.742,232.233 245.127,231.828 245.375,231.441C245.623,231.055 245.747,230.772 245.747,230.593C245.747,230.406 245.662,230.312 245.491,230.312C245.345,230.312 245.107,230.406 244.777,230.593C244.447,230.78 244.114,231.024 243.776,231.325C243.438,231.626 243.135,231.98 242.867,232.387C242.598,232.794 242.423,233.238 242.342,233.718ZM245.747,226.821C245.609,226.821 245.483,226.774 245.369,226.68C245.255,226.587 245.198,226.483 245.198,226.369C245.198,226.068 245.621,225.299 246.468,224.062C246.834,223.549 247.141,223.21 247.389,223.043C247.638,222.876 247.99,222.793 248.445,222.793C249.047,222.793 249.349,223 249.349,223.415C249.349,223.651 249.086,224.042 248.561,224.587C248.036,225.132 247.475,225.641 246.877,226.113C246.278,226.585 245.902,226.821 245.747,226.821Z" style="fill:rgb(119,119,119);fill-rule:nonzero;"/>
            <path d="M249.867,238.222C249.607,238.125 249.438,238.051 249.361,238.002C249.283,237.954 249.245,237.852 249.245,237.697C249.245,237.478 249.373,237.187 249.629,236.825C249.885,236.462 250.176,236.145 250.502,235.872C250.827,235.6 251.092,235.463 251.295,235.463C251.596,235.463 251.747,235.647 251.747,236.013C251.747,236.428 251.501,236.979 251.008,237.667C250.516,238.354 250.071,238.829 249.672,239.089C249.403,239.268 249.269,239.292 249.269,239.162C249.269,239.105 249.291,239.05 249.336,238.997C249.381,238.944 249.462,238.839 249.58,238.68C249.698,238.521 249.794,238.369 249.867,238.222Z" style="fill:rgb(119,119,119);fill-rule:nonzero;"/>
            <path d="M279.737,222.536L279.737,223.366C279.737,223.708 279.67,223.924 279.536,224.013C279.402,224.103 278.909,224.343 278.059,224.733C277.208,225.124 276.392,225.584 275.611,226.113C275.912,225.673 276.187,225.348 276.435,225.136C276.683,224.925 277.019,224.66 277.442,224.343C277.076,224.196 276.567,224.123 275.916,224.123C274.907,224.123 273.819,224.322 272.651,224.721C271.483,225.12 270.49,225.596 269.673,226.149C268.855,226.703 268.446,227.167 268.446,227.541C268.446,227.736 268.57,227.897 268.818,228.023C269.066,228.149 269.465,228.247 270.014,228.316C270.564,228.385 271.249,228.432 272.071,228.457C272.893,228.481 273.906,228.493 275.111,228.493C275.99,228.493 276.555,228.526 276.808,228.591C277.06,228.656 277.186,228.807 277.186,229.043C277.186,229.344 277.037,229.687 276.74,230.074C276.443,230.461 276.051,230.69 275.562,230.764C274.806,230.886 274.203,230.99 273.756,231.075C273.308,231.16 272.777,231.305 272.163,231.508C271.548,231.712 270.867,232.005 270.118,232.387C269.003,232.973 268.132,233.567 267.506,234.169C266.879,234.772 266.566,235.305 266.566,235.769C266.566,236.167 266.79,236.479 267.237,236.702C267.685,236.926 268.328,237.038 269.166,237.038C272.055,237.038 274.997,235.74 277.992,233.144C278.008,233.942 277.92,234.644 277.729,235.25C277.538,235.856 277.149,236.436 276.563,236.989C276.075,237.453 275.361,237.897 274.421,238.32C273.481,238.743 272.456,239.081 271.345,239.333C270.234,239.585 269.19,239.711 268.214,239.711C267.083,239.711 266.147,239.441 265.406,238.9C264.666,238.359 264.295,237.64 264.295,236.745C264.295,236.094 264.474,235.447 264.832,234.804C265.191,234.161 265.74,233.545 266.48,232.955C267.221,232.365 268.159,231.83 269.294,231.35C270.429,230.87 271.738,230.491 273.219,230.214C273.43,230.174 273.536,230.109 273.536,230.019C273.536,229.921 273.412,229.862 273.164,229.842C272.916,229.822 272.46,229.808 271.797,229.799C271.133,229.791 270.549,229.763 270.045,229.714C269.54,229.665 269.007,229.559 268.446,229.397C267.868,229.218 267.422,228.904 267.109,228.457C266.796,228.009 266.639,227.513 266.639,226.967C266.639,226.267 266.891,225.564 267.396,224.856C267.9,224.148 268.613,223.509 269.532,222.939C270.452,222.369 271.565,221.912 272.871,221.566C274.177,221.22 275.607,221.047 277.162,221.047C278.057,221.047 278.681,221.098 279.035,221.2C279.389,221.301 279.595,221.436 279.652,221.602C279.709,221.769 279.737,222.08 279.737,222.536ZM276.624,219.802C276.486,219.802 276.36,219.755 276.246,219.661C276.132,219.568 276.075,219.464 276.075,219.35C276.075,219.049 276.498,218.28 277.345,217.043C277.711,216.53 278.018,216.191 278.266,216.024C278.514,215.857 278.866,215.773 279.322,215.773C279.924,215.773 280.226,215.981 280.226,216.396C280.226,216.632 279.963,217.023 279.438,217.568C278.913,218.113 278.352,218.622 277.754,219.094C277.155,219.566 276.779,219.802 276.624,219.802Z" style="fill:rgb(119,119,119);fill-rule:nonzero;"/>
            <path d="M288.996,234.89L284.943,238.222C283.804,240.192 282.766,241.663 281.83,242.635C280.895,243.608 280.199,244.094 279.743,244.094C279.499,244.094 279.377,243.943 279.377,243.642C279.377,243.056 279.674,242.308 280.268,241.396C280.504,241.038 280.775,240.688 281.08,240.346C281.385,240.004 281.674,239.709 281.946,239.461C282.219,239.213 282.579,238.904 283.027,238.534C283.474,238.163 283.78,237.909 283.942,237.771C284.756,236.11 285.342,234.841 285.7,233.962C284.935,234.776 284.268,235.443 283.698,235.964C283.129,236.485 282.606,236.886 282.13,237.166C281.653,237.447 281.224,237.587 280.842,237.587C280.427,237.587 280.044,237.256 279.694,236.593C279.344,235.929 279.169,235.248 279.169,234.548C279.169,234.222 279.245,233.881 279.395,233.523C279.546,233.164 279.782,232.782 280.103,232.375C280.425,231.968 280.834,231.551 281.33,231.124C281.826,230.697 282.408,230.28 283.076,229.873C284.337,229.083 285.318,228.689 286.017,228.689C286.538,228.689 286.799,228.88 286.799,229.262C286.799,229.791 286.233,230.308 285.102,230.813C284.41,231.114 283.725,231.512 283.045,232.009C282.366,232.505 281.816,233.032 281.397,233.59C280.978,234.147 280.768,234.65 280.768,235.097C280.768,235.317 280.821,235.492 280.927,235.622C281.033,235.752 281.171,235.817 281.342,235.817C281.627,235.817 281.953,235.687 282.319,235.427C282.685,235.166 283.226,234.707 283.942,234.047C284.268,233.746 284.701,233.26 285.242,232.589C285.784,231.917 286.231,231.405 286.585,231.051C286.939,230.697 287.259,230.52 287.543,230.52C287.706,230.52 287.838,230.57 287.94,230.672C288.042,230.774 288.093,230.922 288.093,231.118C288.093,231.492 287.944,232.035 287.647,232.747C287.35,233.459 286.815,234.625 286.042,236.245L288.996,234.096L288.996,234.89Z" style="fill:rgb(119,119,119);fill-rule:nonzero;"/>
            <path d="M290.589,231.887C291.826,230.764 293.026,229.93 294.19,229.384C295.354,228.839 296.253,228.566 296.888,228.566C297.059,228.566 297.217,228.638 297.364,228.78C297.51,228.922 297.626,229.087 297.712,229.274C297.797,229.462 297.84,229.6 297.84,229.69C297.84,229.836 297.783,229.944 297.669,230.013C297.555,230.082 297.356,230.166 297.071,230.263C297.128,230.393 297.201,230.56 297.29,230.764C297.38,230.967 297.449,231.132 297.498,231.258C297.547,231.384 297.571,231.496 297.571,231.594C297.571,231.789 297.374,232.153 296.979,232.686C296.584,233.219 296.308,233.612 296.149,233.864C295.99,234.117 295.911,234.426 295.911,234.792C295.911,235.394 296.188,235.695 296.741,235.695C297.311,235.695 298.202,235.162 299.414,234.096L299.414,234.841C297.356,237.128 295.883,238.271 294.996,238.271C294.678,238.271 294.452,238.167 294.318,237.96C294.184,237.752 294.117,237.445 294.117,237.038C294.117,236.395 294.349,235.463 294.812,234.243C293.624,235.561 292.741,236.499 292.163,237.056C291.586,237.614 291.11,237.893 290.735,237.893C290.556,237.893 290.332,237.738 290.064,237.429C289.795,237.12 289.557,236.719 289.35,236.226C289.142,235.734 289.038,235.223 289.038,234.694C289.038,234.312 289.075,233.992 289.148,233.736C289.222,233.48 289.364,233.217 289.576,232.949C289.787,232.68 290.125,232.326 290.589,231.887ZM296.436,230.544C294.32,231.512 292.813,232.334 291.913,233.01C291.014,233.685 290.564,234.381 290.564,235.097C290.564,235.358 290.609,235.571 290.699,235.738C290.788,235.905 290.91,235.988 291.065,235.988C291.154,235.988 291.313,235.931 291.541,235.817C292.395,235.313 293.177,234.656 293.885,233.846C294.593,233.036 295.443,231.936 296.436,230.544Z" style="fill:rgb(119,119,119);fill-rule:nonzero;"/>
            <path d="M305.39,233.938L305.39,234.841C303.689,237.095 302.305,238.222 301.239,238.222C300.661,238.222 300.208,237.907 299.878,237.276C299.549,236.645 299.384,235.817 299.384,234.792C299.384,233.962 299.579,232.975 299.97,231.832C300.36,230.688 300.883,229.529 301.538,228.353C302.193,227.177 302.873,226.152 303.577,225.277C304.281,224.402 304.934,223.789 305.536,223.44C305.78,223.293 305.971,223.22 306.11,223.22C306.281,223.22 306.395,223.295 306.452,223.446C306.509,223.596 306.537,223.855 306.537,224.221C306.537,225.352 306.077,226.742 305.158,228.389C304.238,230.037 302.956,231.72 301.312,233.437C301.231,233.86 301.19,234.186 301.19,234.414C301.19,234.934 301.302,235.358 301.526,235.683C301.75,236.009 302.061,236.171 302.46,236.171C302.663,236.171 302.883,236.092 303.119,235.933C303.355,235.775 303.603,235.577 303.864,235.341C304.124,235.105 304.633,234.637 305.39,233.938ZM301.74,231.74C302.163,231.325 302.572,230.853 302.966,230.324C303.361,229.795 303.733,229.23 304.083,228.627C304.433,228.025 304.708,227.484 304.907,227.004C305.107,226.524 305.206,226.162 305.206,225.918C305.206,225.73 305.141,225.637 305.011,225.637C304.962,225.637 304.869,225.682 304.73,225.771C304.234,226.178 303.677,226.973 303.058,228.158C302.44,229.342 302,230.536 301.74,231.74Z" style="fill:rgb(119,119,119);fill-rule:nonzero;"/>
            <path d="M310.535,228.615C310.331,228.615 310.138,228.538 309.955,228.383C309.772,228.229 309.68,228.033 309.68,227.797C309.68,227.439 309.851,227.041 310.193,226.601C310.535,226.162 310.889,225.942 311.255,225.942C311.499,225.942 311.702,226.017 311.865,226.168C312.028,226.318 312.109,226.536 312.109,226.821C312.109,227.171 311.942,227.557 311.609,227.981C311.275,228.404 310.917,228.615 310.535,228.615ZM311.365,234.072L311.365,234.963C310.575,235.98 309.839,236.747 309.155,237.264C308.472,237.781 307.89,238.039 307.41,238.039C306.742,238.039 306.246,237.689 305.92,236.989C305.595,236.289 305.432,235.524 305.432,234.694C305.432,234.377 305.465,234.074 305.53,233.785C305.595,233.496 305.672,233.258 305.762,233.071C305.851,232.884 306.018,232.591 306.262,232.192C307.418,230.393 308.476,229.494 309.436,229.494C309.932,229.494 310.181,229.685 310.181,230.068C310.181,230.328 310.02,230.735 309.698,231.289C309.377,231.842 309.09,232.237 308.838,232.473C308.13,233.156 307.668,233.632 307.452,233.901C307.237,234.169 307.129,234.475 307.129,234.816C307.129,235.109 307.239,235.354 307.458,235.549C307.678,235.744 307.963,235.842 308.313,235.842C308.695,235.842 309.117,235.701 309.576,235.421C310.036,235.14 310.632,234.69 311.365,234.072Z" style="fill:rgb(119,119,119);fill-rule:nonzero;"/>
            <path d="M315.789,227.736L316.314,227.736C316.746,226.963 317.136,226.416 317.486,226.095C317.836,225.773 318.235,225.612 318.683,225.612C319.13,225.612 319.354,225.714 319.354,225.918C319.354,226.015 319.179,226.28 318.829,226.711C318.479,227.142 318.215,227.504 318.036,227.797C318.312,227.83 318.558,227.858 318.774,227.883C318.99,227.907 319.159,227.928 319.281,227.944C318.817,228.807 318.235,229.69 317.535,230.593C317.307,230.577 317.116,230.562 316.961,230.55C316.807,230.538 316.65,230.526 316.491,230.513C316.333,230.501 316.139,230.487 315.912,230.471C315.472,231.179 315.104,231.811 314.807,232.369C314.51,232.926 314.282,233.437 314.123,233.901C313.965,234.365 313.885,234.804 313.885,235.219C313.885,235.781 314.109,236.062 314.557,236.062C314.866,236.062 315.271,235.897 315.771,235.567C316.272,235.238 316.941,234.731 317.779,234.047L317.779,234.865C315.582,237.25 313.958,238.442 312.909,238.442C312.542,238.442 312.247,238.3 312.024,238.015C311.8,237.73 311.688,237.364 311.688,236.916C311.688,236.615 311.751,236.257 311.877,235.842C312.003,235.427 312.229,234.8 312.555,233.962C312.441,234.06 312.333,234.155 312.231,234.249C312.129,234.342 312.036,234.428 311.95,234.505C311.865,234.582 311.773,234.664 311.676,234.749C311.578,234.835 311.48,234.922 311.383,235.012L311.383,234.169C312.237,233.453 313.271,232.196 314.483,230.398C314.361,230.389 314.247,230.383 314.142,230.379C314.036,230.375 313.91,230.373 313.763,230.373C313.283,230.373 312.925,230.406 312.689,230.471C312.591,230.495 312.5,230.522 312.414,230.55C312.329,230.579 312.27,230.593 312.237,230.593C312.205,230.593 312.188,230.568 312.188,230.52C312.188,230.251 312.355,229.848 312.689,229.311C312.957,228.855 313.212,228.518 313.452,228.298C313.692,228.078 313.985,227.93 314.331,227.852C314.677,227.775 315.163,227.736 315.789,227.736Z" style="fill:rgb(119,119,119);fill-rule:nonzero;"/>
            <path d="M319.958,234.511L319.958,234.816C319.958,235.297 320.076,235.671 320.312,235.94C320.548,236.208 320.857,236.342 321.24,236.342C321.638,236.342 322.051,236.249 322.479,236.062C322.906,235.874 323.331,235.626 323.754,235.317C324.177,235.008 324.694,234.593 325.305,234.072L325.305,234.816C324.385,235.923 323.522,236.772 322.717,237.362C321.911,237.952 321.093,238.247 320.263,238.247C319.539,238.247 318.965,237.966 318.542,237.404C318.119,236.843 317.907,236.074 317.907,235.097C317.907,234.243 318.107,233.468 318.505,232.772C318.904,232.076 319.555,231.342 320.458,230.568C321.077,230.039 321.691,229.641 322.302,229.372C322.912,229.104 323.457,228.969 323.937,228.969C324.32,228.969 324.623,229.057 324.847,229.232C325.071,229.407 325.183,229.669 325.183,230.019C325.183,230.532 324.991,231.042 324.609,231.551C324.226,232.06 323.642,232.564 322.857,233.065C322.072,233.565 321.105,234.047 319.958,234.511ZM320.08,233.718C320.812,233.433 321.439,233.079 321.96,232.656C322.481,232.233 322.865,231.828 323.113,231.441C323.362,231.055 323.486,230.772 323.486,230.593C323.486,230.406 323.4,230.312 323.229,230.312C323.083,230.312 322.845,230.406 322.515,230.593C322.186,230.78 321.852,231.024 321.514,231.325C321.177,231.626 320.873,231.98 320.605,232.387C320.336,232.794 320.161,233.238 320.08,233.718ZM323.486,226.821C323.347,226.821 323.221,226.774 323.107,226.68C322.993,226.587 322.936,226.483 322.936,226.369C322.936,226.068 323.36,225.299 324.206,224.062C324.572,223.549 324.879,223.21 325.128,223.043C325.376,222.876 325.728,222.793 326.184,222.793C326.786,222.793 327.087,223 327.087,223.415C327.087,223.651 326.824,224.042 326.299,224.587C325.775,225.132 325.213,225.641 324.615,226.113C324.017,226.585 323.64,226.821 323.486,226.821Z" style="fill:rgb(119,119,119);fill-rule:nonzero;"/>
            <path d="M327.605,238.222C327.345,238.125 327.176,238.051 327.099,238.002C327.021,237.954 326.983,237.852 326.983,237.697C326.983,237.478 327.111,237.187 327.367,236.825C327.624,236.462 327.915,236.145 328.24,235.872C328.566,235.6 328.83,235.463 329.034,235.463C329.335,235.463 329.485,235.647 329.485,236.013C329.485,236.428 329.239,236.979 328.747,237.667C328.254,238.354 327.809,238.829 327.41,239.089C327.142,239.268 327.007,239.292 327.007,239.162C327.007,239.105 327.03,239.05 327.074,238.997C327.119,238.944 327.201,238.839 327.319,238.68C327.437,238.521 327.532,238.369 327.605,238.222Z" style="fill:rgb(119,119,119);fill-rule:nonzero;"/>
            <path d="M335.863,237.966C335.725,237.966 335.607,237.913 335.509,237.807C335.412,237.701 335.363,237.555 335.363,237.368C335.363,237.221 335.45,236.959 335.625,236.58C335.8,236.202 336.02,235.864 336.284,235.567C336.549,235.27 336.823,235.122 337.108,235.122C337.458,235.122 337.633,235.329 337.633,235.744C337.633,235.972 337.54,236.267 337.352,236.629C337.165,236.991 336.933,237.305 336.657,237.569C336.38,237.834 336.115,237.966 335.863,237.966Z" style="fill:rgb(119,119,119);fill-rule:nonzero;"/>
            <path d="M344.438,237.966C344.3,237.966 344.182,237.913 344.084,237.807C343.987,237.701 343.938,237.555 343.938,237.368C343.938,237.221 344.025,236.959 344.2,236.58C344.375,236.202 344.595,235.864 344.86,235.567C345.124,235.27 345.399,235.122 345.684,235.122C346.033,235.122 346.208,235.329 346.208,235.744C346.208,235.972 346.115,236.267 345.928,236.629C345.74,236.991 345.509,237.305 345.232,237.569C344.955,237.834 344.691,237.966 344.438,237.966Z" style="fill:rgb(119,119,119);fill-rule:nonzero;"/>
            <path d="M353.014,237.966C352.875,237.966 352.757,237.913 352.66,237.807C352.562,237.701 352.513,237.555 352.513,237.368C352.513,237.221 352.601,236.959 352.776,236.58C352.951,236.202 353.17,235.864 353.435,235.567C353.699,235.27 353.974,235.122 354.259,235.122C354.609,235.122 354.784,235.329 354.784,235.744C354.784,235.972 354.69,236.267 354.503,236.629C354.316,236.991 354.084,237.305 353.807,237.569C353.53,237.834 353.266,237.966 353.014,237.966Z" style="fill:rgb(119,119,119);fill-rule:nonzero;"/>
            <path d="M379.898,228.19L382.847,228.19C384.553,225.899 385.852,223.9 386.744,222.194C387.636,220.489 388.081,219.369 388.081,218.835C388.081,218.093 387.443,217.722 386.167,217.722C385.425,217.787 384.11,217.946 382.222,218.2C380.334,218.454 378.505,218.757 376.734,219.108C375.145,219.408 373.872,219.717 372.915,220.036C371.958,220.355 371.285,220.619 370.894,220.827C370.503,221.036 370.262,221.185 370.171,221.276C371.135,221.224 371.949,221.198 372.613,221.198C373.654,221.198 374.175,221.315 374.175,221.55C374.175,221.654 373.811,221.787 373.081,221.95C372.352,222.113 371.662,222.286 371.011,222.468C370.373,222.65 369.751,222.865 369.146,223.112C368.54,223.36 368.173,223.483 368.042,223.483C367.743,223.483 367.496,223.37 367.3,223.142C367.105,222.914 367.007,222.637 367.007,222.312C367.007,222.09 367.186,221.514 367.544,220.583C367.902,219.652 368.407,218.715 369.058,217.771C369.709,216.827 370.516,216.127 371.48,215.671C371.831,215.502 372.955,215.196 374.849,214.753C376.744,214.31 378.882,213.907 381.265,213.542C383.648,213.177 385.829,212.995 387.808,212.995C389.006,212.995 389.966,213.161 390.689,213.493C391.412,213.825 391.773,214.538 391.773,215.632C391.773,215.983 391.643,216.527 391.382,217.263C391.122,217.998 390.708,218.939 390.142,220.085C389.576,221.231 388.886,222.487 388.072,223.855C387.258,225.222 386.33,226.667 385.288,228.19L388.296,228.19L385.699,231.921C385.347,231.947 384.908,231.967 384.38,231.98C383.853,231.993 383.277,232.012 382.652,232.038C381.05,234.121 379.315,236.081 377.447,237.917C375.578,239.753 373.886,241.224 372.369,242.331C370.852,243.438 369.787,243.991 369.175,243.991C368.928,243.991 368.713,243.91 368.531,243.747C368.348,243.584 368.257,243.373 368.257,243.112C368.257,242.891 368.547,242.325 369.126,241.413C369.706,240.502 370.51,239.649 371.538,238.855C372.567,238.06 373.739,237.618 375.054,237.526C375.588,236.967 376.047,236.468 376.431,236.032C376.815,235.596 377.359,234.965 378.062,234.138C378.765,233.311 379.305,232.676 379.683,232.233L373.804,232.526C373.166,232.552 372.727,232.523 372.486,232.439C372.245,232.354 372.124,232.142 372.124,231.804C372.124,231.804 372.19,231.638 372.32,231.306C372.45,230.974 372.587,230.684 372.73,230.437C372.938,230.059 373.104,229.831 373.228,229.753C373.352,229.675 373.706,229.571 374.292,229.44L377.886,228.562C378.85,228.314 379.52,228.19 379.898,228.19Z" style="fill:rgb(0,149,252);fill-rule:nonzero;"/>
            <path d="M389.438,233.269L389.438,231.999C390.142,231.166 390.675,230.456 391.04,229.87C390.623,229.727 390.321,229.551 390.132,229.343C389.943,229.134 389.849,228.822 389.849,228.405C389.849,227.937 390.044,227.344 390.435,226.628C390.825,225.912 391.307,225.241 391.88,224.616C392.453,223.991 392.974,223.588 393.442,223.405C393.625,223.314 393.8,223.269 393.97,223.269C394.23,223.269 394.36,223.392 394.36,223.64C394.36,223.861 394.159,224.31 393.755,224.987C396.437,224.571 398.13,224.362 398.833,224.362C399.106,224.362 399.295,224.388 399.399,224.44C399.621,224.558 399.803,224.831 399.946,225.261C400.09,225.69 400.161,226.12 400.161,226.55C400.161,226.823 400.041,227.12 399.8,227.439C399.559,227.758 399.146,228.223 398.56,228.835C397.869,229.577 397.29,230.384 396.821,231.257C396.353,232.129 396.118,232.787 396.118,233.23C396.118,233.842 396.496,234.148 397.251,234.148C398.045,234.148 399.425,233.34 401.392,231.726L401.392,233.034C400.311,234.167 399.419,235.059 398.716,235.71C398.013,236.361 397.362,236.879 396.763,237.263C396.164,237.647 395.63,237.839 395.161,237.839C394.614,237.839 394.159,237.588 393.794,237.087C393.429,236.586 393.247,235.86 393.247,234.909C393.247,234.349 393.39,233.711 393.677,232.995C393.963,232.279 394.383,231.501 394.937,230.661C395.49,229.821 396.112,228.985 396.802,228.151C396.437,228.23 396.027,228.311 395.571,228.396C395.116,228.48 394.634,228.568 394.126,228.659C393.618,228.75 393.228,228.822 392.954,228.874C392.147,230.489 390.975,231.954 389.438,233.269Z" style="fill:rgb(0,149,252);fill-rule:nonzero;"/>
            <path d="M403.999,228.269C405.978,226.472 407.898,225.137 409.76,224.265C411.622,223.392 413.061,222.956 414.077,222.956C414.35,222.956 414.604,223.07 414.838,223.298C415.073,223.526 415.258,223.789 415.395,224.089C415.532,224.388 415.6,224.61 415.6,224.753C415.6,224.987 415.509,225.16 415.327,225.271C415.144,225.381 414.825,225.515 414.37,225.671C414.461,225.879 414.578,226.146 414.721,226.472C414.865,226.797 414.975,227.061 415.053,227.263C415.131,227.465 415.171,227.644 415.171,227.8C415.171,228.112 414.855,228.695 414.223,229.548C413.592,230.401 413.149,231.029 412.895,231.433C412.641,231.836 412.514,232.331 412.514,232.917C412.514,233.881 412.957,234.362 413.842,234.362C414.754,234.362 416.18,233.509 418.12,231.804L418.12,232.995C414.825,236.654 412.469,238.483 411.049,238.483C410.542,238.483 410.18,238.317 409.965,237.985C409.751,237.653 409.643,237.162 409.643,236.511C409.643,235.482 410.014,233.991 410.756,232.038C408.855,234.148 407.443,235.648 406.518,236.54C405.594,237.432 404.832,237.878 404.233,237.878C403.947,237.878 403.588,237.631 403.159,237.136C402.729,236.641 402.348,236 402.016,235.212C401.684,234.424 401.518,233.607 401.518,232.761C401.518,232.149 401.577,231.638 401.694,231.228C401.811,230.817 402.039,230.398 402.378,229.968C402.716,229.538 403.256,228.972 403.999,228.269ZM413.354,226.12C409.969,227.67 407.557,228.985 406.118,230.065C404.679,231.146 403.96,232.259 403.96,233.405C403.96,233.822 404.031,234.164 404.174,234.431C404.318,234.698 404.513,234.831 404.76,234.831C404.904,234.831 405.158,234.74 405.522,234.558C406.889,233.75 408.139,232.699 409.272,231.403C410.405,230.108 411.766,228.347 413.354,226.12Z" style="fill:rgb(0,149,252);fill-rule:nonzero;"/>
            <path d="M425.199,221.628L426.039,221.628C426.729,220.391 427.354,219.515 427.914,219.001C428.474,218.487 429.112,218.23 429.828,218.23C430.544,218.23 430.903,218.392 430.903,218.718C430.903,218.874 430.623,219.297 430.063,219.987C429.503,220.677 429.08,221.257 428.793,221.726C429.236,221.778 429.63,221.823 429.975,221.862C430.32,221.901 430.59,221.934 430.785,221.96C430.043,223.34 429.112,224.753 427.992,226.198C427.628,226.172 427.322,226.149 427.074,226.13C426.827,226.11 426.576,226.091 426.322,226.071C426.069,226.052 425.759,226.029 425.395,226.003C424.692,227.136 424.102,228.148 423.627,229.04C423.152,229.932 422.787,230.749 422.533,231.491C422.28,232.233 422.153,232.937 422.153,233.601C422.153,234.499 422.511,234.948 423.227,234.948C423.722,234.948 424.369,234.685 425.17,234.157C425.971,233.63 427.042,232.819 428.383,231.726L428.383,233.034C424.867,236.849 422.27,238.757 420.59,238.757C420.004,238.757 419.532,238.529 419.174,238.073C418.816,237.618 418.637,237.032 418.637,236.315C418.637,235.834 418.738,235.261 418.94,234.597C419.141,233.933 419.503,232.93 420.024,231.589C419.841,231.745 419.669,231.898 419.506,232.048C419.343,232.198 419.194,232.334 419.057,232.458C418.92,232.582 418.774,232.712 418.617,232.849C418.461,232.985 418.305,233.125 418.149,233.269L418.149,231.921C419.516,230.775 421.169,228.763 423.11,225.886C422.914,225.873 422.732,225.863 422.563,225.857C422.393,225.85 422.192,225.847 421.957,225.847C421.189,225.847 420.616,225.899 420.238,226.003C420.082,226.042 419.936,226.084 419.799,226.13C419.662,226.176 419.568,226.198 419.516,226.198C419.464,226.198 419.438,226.159 419.438,226.081C419.438,225.651 419.705,225.007 420.238,224.148C420.668,223.418 421.075,222.878 421.459,222.526C421.843,222.175 422.312,221.937 422.865,221.814C423.419,221.69 424.197,221.628 425.199,221.628Z" style="fill:rgb(0,149,252);fill-rule:nonzero;"/>
            <path d="M431.869,232.468L431.869,232.956C431.869,233.724 432.058,234.323 432.435,234.753C432.813,235.183 433.308,235.398 433.92,235.398C434.558,235.398 435.219,235.248 435.902,234.948C436.586,234.649 437.266,234.252 437.943,233.757C438.62,233.262 439.447,232.598 440.424,231.765L440.424,232.956C438.952,234.727 437.572,236.084 436.283,237.028C434.994,237.972 433.685,238.444 432.357,238.444C431.198,238.444 430.28,237.995 429.603,237.097C428.926,236.198 428.588,234.968 428.588,233.405C428.588,232.038 428.907,230.798 429.545,229.685C430.183,228.571 431.224,227.396 432.67,226.159C433.659,225.313 434.642,224.675 435.619,224.245C436.596,223.815 437.468,223.601 438.236,223.601C438.848,223.601 439.333,223.741 439.691,224.021C440.049,224.301 440.228,224.72 440.228,225.28C440.228,226.101 439.922,226.918 439.31,227.732C438.698,228.545 437.764,229.353 436.508,230.153C435.251,230.954 433.705,231.726 431.869,232.468ZM432.064,231.198C433.236,230.743 434.239,230.176 435.072,229.499C435.905,228.822 436.521,228.174 436.918,227.556C437.315,226.937 437.513,226.485 437.513,226.198C437.513,225.899 437.377,225.749 437.103,225.749C436.869,225.749 436.488,225.899 435.961,226.198C435.433,226.498 434.9,226.888 434.359,227.37C433.819,227.852 433.334,228.418 432.904,229.069C432.474,229.72 432.194,230.43 432.064,231.198Z" style="fill:rgb(204,204,204);fill-rule:nonzero;"/>
            <path d="M440.628,233.269L440.628,231.999C441.331,231.166 441.865,230.456 442.23,229.87C441.813,229.727 441.511,229.551 441.322,229.343C441.133,229.134 441.038,228.822 441.038,228.405C441.038,227.937 441.234,227.344 441.624,226.628C442.015,225.912 442.497,225.241 443.07,224.616C443.643,223.991 444.163,223.588 444.632,223.405C444.815,223.314 444.99,223.269 445.16,223.269C445.42,223.269 445.55,223.392 445.55,223.64C445.55,223.861 445.348,224.31 444.945,224.987C447.627,224.571 449.32,224.362 450.023,224.362C450.296,224.362 450.485,224.388 450.589,224.44C450.811,224.558 450.993,224.831 451.136,225.261C451.279,225.69 451.351,226.12 451.351,226.55C451.351,226.823 451.231,227.12 450.99,227.439C450.749,227.758 450.335,228.223 449.749,228.835C449.059,229.577 448.48,230.384 448.011,231.257C447.542,232.129 447.308,232.787 447.308,233.23C447.308,233.842 447.686,234.148 448.441,234.148C449.235,234.148 450.615,233.34 452.581,231.726L452.581,233.034C451.501,234.167 450.609,235.059 449.906,235.71C449.203,236.361 448.552,236.879 447.953,237.263C447.354,237.647 446.82,237.839 446.351,237.839C445.804,237.839 445.348,237.588 444.984,237.087C444.619,236.586 444.437,235.86 444.437,234.909C444.437,234.349 444.58,233.711 444.867,232.995C445.153,232.279 445.573,231.501 446.126,230.661C446.68,229.821 447.302,228.985 447.992,228.151C447.627,228.23 447.217,228.311 446.761,228.396C446.305,228.48 445.824,228.568 445.316,228.659C444.808,228.75 444.417,228.822 444.144,228.874C443.337,230.489 442.165,231.954 440.628,233.269Z" style="fill:rgb(204,204,204);fill-rule:nonzero;"/>
            <path d="M466.067,228.23C463.776,230.782 462.63,232.559 462.63,233.562C462.63,234.121 462.858,234.401 463.313,234.401C463.691,234.401 464.183,234.203 464.788,233.806C465.394,233.409 466.341,232.702 467.63,231.687L467.63,233.034C465.781,234.857 464.362,236.172 463.372,236.98C462.383,237.787 461.575,238.19 460.95,238.19C459.883,238.19 459.349,237.487 459.349,236.081C459.349,235.664 459.414,235.254 459.544,234.851C459.674,234.447 459.853,234.027 460.081,233.591C460.309,233.155 460.657,232.53 461.126,231.716C461.595,230.902 462.135,229.981 462.747,228.952C462.005,229.33 461.074,230.079 459.954,231.198C459.225,231.901 458.606,232.569 458.099,233.2C457.591,233.832 457.047,234.535 456.468,235.31C455.888,236.084 455.465,236.605 455.198,236.872C454.931,237.139 454.661,237.273 454.388,237.273C453.971,237.273 453.587,236.836 453.235,235.964C452.884,235.092 452.708,234.076 452.708,232.917C452.708,232.201 452.789,231.641 452.952,231.237C453.115,230.834 453.437,230.261 453.919,229.519C454.817,228.138 455.592,227.126 456.243,226.482C456.894,225.837 457.519,225.515 458.118,225.515C458.535,225.515 458.87,225.586 459.124,225.73C459.378,225.873 459.505,226.094 459.505,226.394C459.505,226.524 459.466,226.661 459.388,226.804C459.31,226.947 459.222,227.077 459.124,227.194C459.026,227.312 458.821,227.539 458.509,227.878C456.452,230.157 455.423,231.634 455.423,232.312C455.423,232.689 455.547,232.878 455.794,232.878C455.95,232.878 456.253,232.627 456.702,232.126C457.151,231.625 457.731,230.967 458.44,230.153C459.15,229.34 459.99,228.49 460.96,227.605C461.93,226.719 463.034,225.866 464.271,225.046C464.961,224.564 465.534,224.323 465.989,224.323C466.198,224.323 466.403,224.61 466.605,225.183C466.806,225.756 466.907,226.335 466.907,226.921C466.907,227.207 466.627,227.644 466.067,228.23Z" style="fill:rgb(204,204,204);fill-rule:nonzero;"/>
            <path d="M475.921,223.034C475.595,223.034 475.286,222.911 474.993,222.663C474.7,222.416 474.553,222.103 474.553,221.726C474.553,221.153 474.827,220.515 475.374,219.812C475.921,219.108 476.487,218.757 477.073,218.757C477.463,218.757 477.789,218.877 478.049,219.118C478.31,219.359 478.44,219.707 478.44,220.163C478.44,220.723 478.173,221.342 477.639,222.019C477.105,222.696 476.533,223.034 475.921,223.034ZM477.249,231.765L477.249,233.19C475.986,234.818 474.807,236.045 473.713,236.872C472.62,237.699 471.689,238.112 470.921,238.112C469.853,238.112 469.059,237.552 468.538,236.433C468.017,235.313 467.756,234.089 467.756,232.761C467.756,232.253 467.809,231.768 467.913,231.306C468.017,230.843 468.141,230.463 468.284,230.163C468.427,229.864 468.694,229.395 469.085,228.757C470.934,225.879 472.626,224.44 474.163,224.44C474.957,224.44 475.354,224.746 475.354,225.358C475.354,225.775 475.097,226.426 474.583,227.312C474.068,228.197 473.609,228.829 473.206,229.206C472.073,230.3 471.334,231.062 470.989,231.491C470.644,231.921 470.471,232.409 470.471,232.956C470.471,233.425 470.647,233.815 470.999,234.128C471.35,234.44 471.806,234.597 472.366,234.597C472.978,234.597 473.652,234.372 474.387,233.923C475.123,233.474 476.077,232.754 477.249,231.765Z" style="fill:rgb(246,0,36);fill-rule:nonzero;"/>
            <path d="M484.328,221.628L485.168,221.628C485.858,220.391 486.483,219.515 487.043,219.001C487.603,218.487 488.241,218.23 488.957,218.23C489.673,218.23 490.031,218.392 490.031,218.718C490.031,218.874 489.752,219.297 489.192,219.987C488.632,220.677 488.209,221.257 487.922,221.726C488.365,221.778 488.759,221.823 489.104,221.862C489.449,221.901 489.719,221.934 489.914,221.96C489.172,223.34 488.241,224.753 487.121,226.198C486.757,226.172 486.451,226.149 486.203,226.13C485.956,226.11 485.705,226.091 485.451,226.071C485.197,226.052 484.888,226.029 484.524,226.003C483.821,227.136 483.231,228.148 482.756,229.04C482.281,229.932 481.916,230.749 481.662,231.491C481.408,232.233 481.281,232.937 481.281,233.601C481.281,234.499 481.64,234.948 482.356,234.948C482.85,234.948 483.498,234.685 484.299,234.157C485.1,233.63 486.171,232.819 487.512,231.726L487.512,233.034C483.996,236.849 481.399,238.757 479.719,238.757C479.133,238.757 478.661,238.529 478.303,238.073C477.945,237.618 477.766,237.032 477.766,236.315C477.766,235.834 477.867,235.261 478.069,234.597C478.27,233.933 478.632,232.93 479.153,231.589C478.97,231.745 478.798,231.898 478.635,232.048C478.472,232.198 478.322,232.334 478.186,232.458C478.049,232.582 477.903,232.712 477.746,232.849C477.59,232.985 477.434,233.125 477.278,233.269L477.278,231.921C478.645,230.775 480.298,228.763 482.238,225.886C482.043,225.873 481.861,225.863 481.692,225.857C481.522,225.85 481.321,225.847 481.086,225.847C480.318,225.847 479.745,225.899 479.367,226.003C479.211,226.042 479.065,226.084 478.928,226.13C478.791,226.176 478.697,226.198 478.645,226.198C478.593,226.198 478.567,226.159 478.567,226.081C478.567,225.651 478.834,225.007 479.367,224.148C479.797,223.418 480.204,222.878 480.588,222.526C480.972,222.175 481.441,221.937 481.994,221.814C482.548,221.69 483.326,221.628 484.328,221.628Z" style="fill:rgb(246,0,36);fill-rule:nonzero;"/>
            <path d="M490.998,232.468L490.998,232.956C490.998,233.724 491.187,234.323 491.564,234.753C491.942,235.183 492.437,235.398 493.049,235.398C493.687,235.398 494.347,235.248 495.031,234.948C495.715,234.649 496.395,234.252 497.072,233.757C497.749,233.262 498.576,232.598 499.553,231.765L499.553,232.956C498.081,234.727 496.701,236.084 495.412,237.028C494.123,237.972 492.814,238.444 491.486,238.444C490.327,238.444 489.409,237.995 488.732,237.097C488.055,236.198 487.717,234.968 487.717,233.405C487.717,232.038 488.036,230.798 488.674,229.685C489.312,228.571 490.353,227.396 491.799,226.159C492.788,225.313 493.771,224.675 494.748,224.245C495.724,223.815 496.597,223.601 497.365,223.601C497.977,223.601 498.462,223.741 498.82,224.021C499.178,224.301 499.357,224.72 499.357,225.28C499.357,226.101 499.051,226.918 498.439,227.732C497.827,228.545 496.893,229.353 495.637,230.153C494.38,230.954 492.834,231.726 490.998,232.468ZM491.193,231.198C492.365,230.743 493.368,230.176 494.201,229.499C495.034,228.822 495.65,228.174 496.047,227.556C496.444,226.937 496.642,226.485 496.642,226.198C496.642,225.899 496.506,225.749 496.232,225.749C495.998,225.749 495.617,225.899 495.09,226.198C494.562,226.498 494.028,226.888 493.488,227.37C492.948,227.852 492.463,228.418 492.033,229.069C491.603,229.72 491.323,230.43 491.193,231.198ZM496.642,220.163C496.421,220.163 496.219,220.088 496.037,219.939C495.855,219.789 495.763,219.623 495.763,219.44C495.763,218.959 496.441,217.728 497.795,215.749C498.381,214.929 498.872,214.385 499.269,214.118C499.666,213.851 500.23,213.718 500.959,213.718C501.922,213.718 502.404,214.05 502.404,214.714C502.404,215.092 501.984,215.717 501.144,216.589C500.305,217.461 499.406,218.275 498.449,219.03C497.492,219.786 496.89,220.163 496.642,220.163Z" style="fill:rgb(246,0,36);fill-rule:nonzero;"/>
        </g>
    </g>
</svg>
